<svg width="32" height="32" viewBox="0 0 32 32" fill="none" xmlns="http://www.w3.org/2000/svg">
<path fill-rule="evenodd" clip-rule="evenodd" d="M2.66699 7.99984C2.66699 6.58535 3.2289 5.2288 4.22909 4.2286C5.22928 3.22841 6.58584 2.6665 8.00033 2.6665H24.0003C25.4148 2.6665 26.7714 3.22841 27.7716 4.2286C28.7718 5.2288 29.3337 6.58535 29.3337 7.99984V23.9998C29.3337 25.4143 28.7718 26.7709 27.7716 27.7711C26.7714 28.7713 25.4148 29.3332 24.0003 29.3332H8.00033C6.58584 29.3332 5.22928 28.7713 4.22909 27.7711C3.2289 26.7709 2.66699 25.4143 2.66699 23.9998V7.99984ZM8.00033 5.33317C7.29308 5.33317 6.6148 5.61412 6.11471 6.11422C5.61461 6.61432 5.33366 7.29259 5.33366 7.99984V23.9998C5.33366 24.7071 5.61461 25.3854 6.11471 25.8855C6.6148 26.3856 7.29308 26.6665 8.00033 26.6665H16.0003V17.3332H14.667C14.3134 17.3332 13.9742 17.1927 13.7242 16.9426C13.4741 16.6926 13.3337 16.3535 13.3337 15.9998C13.3337 15.6462 13.4741 15.3071 13.7242 15.057C13.9742 14.807 14.3134 14.6665 14.667 14.6665H16.0003V12.6665C16.0003 11.4288 16.492 10.2418 17.3672 9.36667C18.2423 8.4915 19.4293 7.99984 20.667 7.99984H21.467C21.8206 7.99984 22.1597 8.14031 22.4098 8.39036C22.6598 8.64041 22.8003 8.97955 22.8003 9.33317C22.8003 9.68679 22.6598 10.0259 22.4098 10.276C22.1597 10.526 21.8206 10.6665 21.467 10.6665H20.667C20.4043 10.6665 20.1443 10.7182 19.9016 10.8187C19.659 10.9193 19.4385 11.0666 19.2528 11.2523C19.0671 11.438 18.9197 11.6585 18.8192 11.9011C18.7187 12.1438 18.667 12.4039 18.667 12.6665V14.6665H21.467C21.8206 14.6665 22.1597 14.807 22.4098 15.057C22.6598 15.3071 22.8003 15.6462 22.8003 15.9998C22.8003 16.3535 22.6598 16.6926 22.4098 16.9426C22.1597 17.1927 21.8206 17.3332 21.467 17.3332H18.667V26.6665H24.0003C24.7076 26.6665 25.3858 26.3856 25.8859 25.8855C26.386 25.3854 26.667 24.7071 26.667 23.9998V7.99984C26.667 7.29259 26.386 6.61432 25.8859 6.11422C25.3858 5.61412 24.7076 5.33317 24.0003 5.33317H8.00033Z" fill="#C4B6B6"/>
</svg>
