<svg width="32" height="32" viewBox="0 0 32 32" fill="none" xmlns="http://www.w3.org/2000/svg">
<path fill-rule="evenodd" clip-rule="evenodd" d="M8.00033 2.6665C6.58584 2.6665 5.22928 3.22841 4.22909 4.2286C3.2289 5.2288 2.66699 6.58535 2.66699 7.99984V23.9998C2.66699 25.4143 3.2289 26.7709 4.22909 27.7711C5.22928 28.7713 6.58584 29.3332 8.00033 29.3332H24.0003C25.4148 29.3332 26.7714 28.7713 27.7716 27.7711C28.7718 26.7709 29.3337 25.4143 29.3337 23.9998V7.99984C29.3337 6.58535 28.7718 5.2288 27.7716 4.2286C26.7714 3.22841 25.4148 2.6665 24.0003 2.6665H8.00033ZM5.33366 7.99984C5.33366 7.29259 5.61461 6.61432 6.11471 6.11422C6.6148 5.61412 7.29308 5.33317 8.00033 5.33317H24.0003C24.7076 5.33317 25.3858 5.61412 25.8859 6.11422C26.386 6.61432 26.667 7.29259 26.667 7.99984V23.9998C26.667 24.7071 26.386 25.3854 25.8859 25.8855C25.3858 26.3856 24.7076 26.6665 24.0003 26.6665H8.00033C7.29308 26.6665 6.6148 26.3856 6.11471 25.8855C5.61461 25.3854 5.33366 24.7071 5.33366 23.9998V7.99984ZM12.0003 14.6665C12.0003 14.3129 11.8598 13.9737 11.6098 13.7237C11.3598 13.4736 11.0206 13.3332 10.667 13.3332C10.3134 13.3332 9.97423 13.4736 9.72418 13.7237C9.47413 13.9737 9.33366 14.3129 9.33366 14.6665V22.6665C9.33366 23.0201 9.47413 23.3593 9.72418 23.6093C9.97423 23.8594 10.3134 23.9998 10.667 23.9998C11.0206 23.9998 11.3598 23.8594 11.6098 23.6093C11.8598 23.3593 12.0003 23.0201 12.0003 22.6665V14.6665ZM12.667 9.99984C12.667 10.5303 12.4563 11.039 12.0812 11.4141C11.7061 11.7891 11.1974 11.9998 10.667 11.9998C10.1366 11.9998 9.62785 11.7891 9.25278 11.4141C8.87771 11.039 8.66699 10.5303 8.66699 9.99984C8.66699 9.4694 8.87771 8.9607 9.25278 8.58562C9.62785 8.21055 10.1366 7.99984 10.667 7.99984C11.1974 7.99984 11.7061 8.21055 12.0812 8.58562C12.4563 8.9607 12.667 9.4694 12.667 9.99984ZM16.0003 13.3332C16.4537 13.3332 16.8537 13.5598 17.0937 13.9038C17.7809 13.5293 18.551 13.3331 19.3337 13.3332C22.2137 13.3332 24.0003 15.9012 24.0003 18.0945V22.6665C24.0003 23.0201 23.8598 23.3593 23.6098 23.6093C23.3598 23.8594 23.0206 23.9998 22.667 23.9998C22.3134 23.9998 21.9742 23.8594 21.7242 23.6093C21.4741 23.3593 21.3337 23.0201 21.3337 22.6665V18.0932C21.3337 17.0692 20.4537 15.9985 19.3337 15.9985C18.635 15.9985 17.863 16.3785 17.3337 17.2825V22.6665C17.3337 23.0201 17.1932 23.3593 16.9431 23.6093C16.6931 23.8594 16.3539 23.9998 16.0003 23.9998C15.6467 23.9998 15.3076 23.8594 15.0575 23.6093C14.8075 23.3593 14.667 23.0201 14.667 22.6665V14.6665C14.667 14.3129 14.8075 13.9737 15.0575 13.7237C15.3076 13.4736 15.6467 13.3332 16.0003 13.3332Z" fill="#C4B6B6"/>
</svg>
