<svg width="32" height="32" viewBox="0 0 32 32" fill="none" xmlns="http://www.w3.org/2000/svg">
<path fill-rule="evenodd" clip-rule="evenodd" d="M9.66449 5.4265C11.2405 3.5545 13.4725 2.6665 16.0005 2.6665C18.5872 2.6665 20.8058 3.71184 22.3525 5.61717C23.7258 7.3105 24.5032 9.59584 24.6445 12.2532L24.7672 12.2718L24.7938 12.2758C25.0205 12.3078 25.2912 12.3478 25.5725 12.4025C26.6138 12.6038 28.3912 13.1132 29.0032 15.0212C29.3098 15.9798 29.1565 16.8678 28.6192 17.5718C28.1565 18.1785 27.4952 18.5292 27.0218 18.7412C26.7872 18.8478 26.5525 18.9385 26.3552 19.0145C26.8165 20.2625 27.6192 21.5465 28.5072 22.7092C29.3432 23.8052 29.1218 25.1932 28.6898 26.0985C28.2565 27.0052 27.3205 28.0412 25.9578 28.0998C25.1872 28.1332 24.3778 28.2132 23.5725 28.3598C23.2085 28.4265 22.7792 28.5718 22.2458 28.7918C21.9272 28.9225 21.6352 29.0532 21.3205 29.1932C21.0698 29.3052 20.8058 29.4225 20.5005 29.5532C19.2472 30.0918 17.7072 30.6665 16.0005 30.6665C14.2938 30.6665 12.7538 30.0918 11.5005 29.5532C11.1952 29.4225 10.9298 29.3052 10.6805 29.1932C10.3739 29.0551 10.0655 28.9213 9.75515 28.7918C9.22182 28.5718 8.79249 28.4252 8.42849 28.3585C7.62315 28.2118 6.81382 28.1332 6.04182 28.0998C4.68049 28.0412 3.74315 27.0052 3.31115 26.0985C2.87915 25.1932 2.65782 23.8052 3.49382 22.7092C4.38715 21.5385 5.19382 20.2452 5.65382 18.9892C5.45197 18.9098 5.25234 18.8249 5.05515 18.7345C4.59382 18.5185 3.96715 18.1732 3.50449 17.5945C2.98849 16.9465 2.76049 16.1105 2.96315 15.1532C3.39515 13.1038 5.32315 12.5932 6.34182 12.4012C6.63115 12.3478 6.91249 12.3078 7.14849 12.2745L7.19515 12.2678L7.35515 12.2452C7.48715 9.41184 8.25915 7.0945 9.66449 5.4265ZM11.7045 7.14384C10.6872 8.3505 10.0005 10.2905 10.0005 13.1438V13.2825L9.97115 13.4198C9.82315 14.1185 9.28582 14.4452 9.01915 14.5705C8.73915 14.7025 8.43649 14.7678 8.22315 14.8078C8.01515 14.8465 7.78315 14.8785 7.57649 14.9065L7.51515 14.9158C7.28723 14.946 7.06006 14.9816 6.83382 15.0225C5.81382 15.2132 5.62049 15.4665 5.57115 15.7025C5.53649 15.8718 5.56715 15.9065 5.58449 15.9252L5.58982 15.9305C5.66049 16.0198 5.83115 16.1532 6.18582 16.3185C6.35115 16.3958 6.52582 16.4665 6.71915 16.5452L6.76715 16.5638C6.93649 16.6305 7.13782 16.7118 7.31515 16.7958C7.48982 16.8758 7.78182 17.0225 8.02982 17.2598C8.31782 17.5358 8.66582 18.0745 8.49649 18.7852C8.01115 20.8265 6.78582 22.7918 5.61515 24.3252C5.59734 24.37 5.59004 24.4184 5.59382 24.4665C5.59382 24.5932 5.62982 24.7665 5.71649 24.9492C5.80449 25.1318 5.91649 25.2718 6.02049 25.3558C6.10582 25.4252 6.15382 25.4358 6.15915 25.4358C7.02715 25.4732 7.95915 25.5638 8.90582 25.7358C9.54982 25.8532 10.1858 26.0852 10.7725 26.3278C11.0965 26.4612 11.4685 26.6265 11.8298 26.7865C12.0818 26.8985 12.3285 27.0078 12.5498 27.1025C13.7485 27.6158 14.8672 27.9998 16.0005 27.9998C17.1338 27.9998 18.2538 27.6158 19.4512 27.1025C19.6725 27.0078 19.9192 26.8972 20.1712 26.7865C20.5312 26.6265 20.9045 26.4612 21.2272 26.3278C21.8138 26.0852 22.4498 25.8532 23.0938 25.7358C24.0405 25.5625 24.9738 25.4732 25.8405 25.4358C25.8485 25.4358 25.8952 25.4252 25.9805 25.3558C26.1094 25.2433 26.213 25.1047 26.2845 24.9492C26.3593 24.7989 26.4011 24.6343 26.4072 24.4665C26.4072 24.3425 26.3765 24.3132 26.3872 24.3278C25.2165 22.7945 23.9898 20.8278 23.5032 18.7852C23.3232 18.0252 23.7352 17.4785 24.0192 17.2252C24.2725 17.0012 24.5685 16.8612 24.7485 16.7825C24.9285 16.7025 25.1312 16.6265 25.3045 16.5612L25.3685 16.5358C25.5725 16.4598 25.7552 16.3892 25.9272 16.3105C26.2872 16.1492 26.4405 16.0252 26.4925 15.9625C26.4878 15.9194 26.4784 15.8769 26.4645 15.8358C26.3432 15.4572 26.0005 15.2012 25.0645 15.0198C24.8525 14.9798 24.6378 14.9478 24.4112 14.9132L24.3605 14.9065C24.1495 14.8779 23.9392 14.8441 23.7298 14.8052C23.4582 14.7576 23.1942 14.6742 22.9445 14.5572C22.6645 14.4185 22.1712 14.0865 22.0298 13.4198L22.0005 13.2825V13.1425C22.0005 10.5425 21.3245 8.5825 20.2818 7.2985C19.2618 6.03984 17.8152 5.33317 16.0005 5.33317C14.1272 5.33317 12.6938 5.96784 11.7032 7.14384H11.7045Z" fill="#C4B6B6"/>
</svg>
